<svg width="24" height="24" viewBox="0 0 24 24" fill="none" xmlns="http://www.w3.org/2000/svg">
<path d="M20.6484 4.14844L18.2109 6.58594L19.4531 7.82812C19.8937 8.26875 19.8937 8.98125 19.4531 9.41719L18.6375 10.2328C19.1906 11.4563 19.5 12.8156 19.5 14.2453C19.5 19.6312 15.1359 23.9953 9.75 23.9953C4.36406 23.9953 0 19.6359 0 14.25C0 8.86406 4.36406 4.5 9.75 4.5C11.1797 4.5 12.5391 4.80938 13.7625 5.3625L14.5781 4.54688C15.0187 4.10625 15.7312 4.10625 16.1672 4.54688L17.4094 5.78906L19.8469 3.35156L20.6484 4.14844ZM23.4375 2.8125H22.3125C22.0031 2.8125 21.75 3.06563 21.75 3.375C21.75 3.68437 22.0031 3.9375 22.3125 3.9375H23.4375C23.7469 3.9375 24 3.68437 24 3.375C24 3.06563 23.7469 2.8125 23.4375 2.8125ZM20.625 0C20.3156 0 20.0625 0.253125 20.0625 0.5625V1.6875C20.0625 1.99687 20.3156 2.25 20.625 2.25C20.9344 2.25 21.1875 1.99687 21.1875 1.6875V0.5625C21.1875 0.253125 20.9344 0 20.625 0ZM22.2141 2.57812L23.0109 1.78125C23.2312 1.56094 23.2312 1.20469 23.0109 0.984375C22.7906 0.764063 22.4344 0.764063 22.2141 0.984375L21.4172 1.78125C21.1969 2.00156 21.1969 2.35781 21.4172 2.57812C21.6422 2.79844 21.9984 2.79844 22.2141 2.57812ZM19.0359 2.57812C19.2563 2.79844 19.6125 2.79844 19.8328 2.57812C20.0531 2.35781 20.0531 2.00156 19.8328 1.78125L19.0359 0.984375C18.8156 0.764063 18.4594 0.764063 18.2391 0.984375C18.0188 1.20469 18.0188 1.56094 18.2391 1.78125L19.0359 2.57812ZM22.2141 4.17188C21.9937 3.95156 21.6375 3.95156 21.4172 4.17188C21.1969 4.39219 21.1969 4.74844 21.4172 4.96875L22.2141 5.76562C22.4344 5.98594 22.7906 5.98594 23.0109 5.76562C23.2312 5.54531 23.2312 5.18906 23.0109 4.96875L22.2141 4.17188ZM5.25 12.75C5.25 11.0953 6.59531 9.75 8.25 9.75C8.6625 9.75 9 9.4125 9 9C9 8.5875 8.6625 8.25 8.25 8.25C5.77031 8.25 3.75 10.2703 3.75 12.75C3.75 13.1625 4.0875 13.5 4.5 13.5C4.9125 13.5 5.25 13.1625 5.25 12.75Z" fill="black"/>
</svg>
